<svg width="1661" height="1269" viewBox="0 0 1661 1269" fill="none" xmlns="http://www.w3.org/2000/svg">
<g id="SkillTree">
<path id="ArrowPath1" d="M76.8937 773.872L168.989 582.482C172.155 575.904 178.81 571.721 186.11 571.721L343.668 571.721" stroke="#61FFFF" stroke-width="10" stroke-linecap="round"/>
<path id="ArrowPath0" d="M76.8938 773.872L168.29 960.721C171.478 967.239 178.101 971.372 185.357 971.372L424.5 971.372" stroke="#61FFFF" stroke-width="10" stroke-linecap="round"/>
<path id="ArrowPath00" d="M423.547 971.969L515.571 1187.34C518.561 1194.33 525.435 1198.87 533.043 1198.87L667.5 1198.87" stroke="#61FFFF" stroke-width="10" stroke-linecap="round"/>
<path id="ArrowPath01" d="M474.5 932.372L674.569 932.372C678.431 932.372 682.201 933.549 685.378 935.746L740.5 973.872" stroke="#61FFFF" stroke-width="10" stroke-linecap="round"/>
<path id="ArrowPath02" d="M435 951.372L500 828.372L636.213 828.372C642.354 828.372 648.117 825.404 651.683 820.404L692 763.872" stroke="#61FFFF" stroke-width="10" stroke-linecap="round"/>
<path id="ArrowPath11" d="M350 529.872L577.344 529.872C583.963 529.872 590.105 526.428 593.556 520.78L698 349.872" stroke="#61FFFF" stroke-width="10" stroke-linecap="round"/>
<path id="ArrowPath114" d="M691 295.372L691 144.445C691 137.871 694.398 131.764 699.985 128.299L801 65.645" stroke="#61FFFF" stroke-width="10" stroke-linecap="round"/>
<path id="ArrowPath110" d="M700 392.954L767.185 449.869C770.617 452.777 774.968 454.372 779.466 454.372L1018.92 454.372C1023.18 454.372 1027.32 452.938 1030.67 450.3L1103.5 392.954" stroke="#61FFFF" stroke-width="10" stroke-linecap="round"/>
<path id="ArrowPath113" d="M743 332.372L799.372 246.449C802.885 241.096 808.856 237.872 815.259 237.872L971.721 237.872C978.406 237.872 984.6 234.358 988.03 228.619L1022.5 170.943" stroke="#61FFFF" stroke-width="10" stroke-linecap="round"/>
<path id="ArrowPath112" d="M759 333.872L833.999 279.225C837.249 276.857 841.167 275.581 845.188 275.581L1246.26 275.581C1252.65 275.581 1258.62 272.365 1262.13 267.022L1315.5 185.872" stroke="#61FFFF" stroke-width="10" stroke-linecap="round"/>
<path id="ArrowPath111" d="M747 385.872L840.024 322.465C843.179 320.314 846.908 319.164 850.725 319.164L1414.9 319.164C1420.37 319.164 1425.57 316.812 1429.17 312.709L1476.5 258.872" stroke="#61FFFF" stroke-width="10" stroke-linecap="round"/>
<path id="ArrowPath10" d="M367 585.645L861.873 585.645C865.857 585.645 869.74 586.897 872.973 589.224L1001 681.372" stroke="#61FFFF" stroke-width="10" stroke-linecap="round"/>
<path id="ArrowPath102" d="M991.5 632.872L1215.9 632.872C1220.17 632.872 1224.33 631.429 1227.68 628.776L1287 581.872" stroke="#61FFFF" stroke-width="10" stroke-linecap="round"/>
<path id="ArrowPath101" d="M978 717.03L1525.86 717.03C1530.76 717.03 1535.47 715.137 1539.01 711.746L1578 674.372" stroke="#61FFFF" stroke-width="10" stroke-linecap="round"/>
<path id="ArrowPath100" d="M988.5 692.872L1028.37 777.778C1031.5 784.445 1038.2 788.702 1045.57 788.702L1343.15 788.702C1350.4 788.702 1357.02 792.832 1360.21 799.348L1406 892.872" stroke="#61FFFF" stroke-width="10" stroke-linecap="round"/>
<g id="SkillSlot00">
<rect id="Rectangle 2" x="350" y="897.872" width="148" height="148" rx="15" fill="url(#paint0_linear_1_67)" stroke="#CE1B1B" stroke-width="2"/>
<rect id="Rectangle 1" x="348" y="895.872" width="152" height="152" rx="17" stroke="#61FFFF" stroke-width="2"/>
</g>
<g id="SkillSlot01">
<rect id="Rectangle 2_2" x="276" y="491.872" width="148" height="148" rx="15" fill="url(#paint1_linear_1_67)" stroke="#CE1B1B" stroke-width="2"/>
<rect id="Rectangle 1_2" x="274" y="489.872" width="152" height="152" rx="17" stroke="#61FFFF" stroke-width="2"/>
</g>
<g id="SkillSlot010">
<rect id="Rectangle 2_3" x="915" y="598.872" width="148" height="148" rx="15" fill="url(#paint2_linear_1_67)" stroke="#CE1B1B" stroke-width="2"/>
<rect id="Rectangle 1_3" x="913" y="596.872" width="152" height="152" rx="17" stroke="#61FFFF" stroke-width="2"/>
</g>
<g id="SkillSlot0102">
<rect id="Rectangle 2_4" x="1256" y="533.872" width="98" height="98" rx="15" fill="url(#paint3_linear_1_67)" stroke="#CE1B1B" stroke-width="2"/>
<rect id="Rectangle 1_4" x="1254" y="531.872" width="102" height="102" rx="17" stroke="#61FFFF" stroke-width="2"/>
</g>
<g id="SkillSlot0114">
<rect id="Rectangle 2_5" x="750" y="22.8721" width="98" height="98" rx="15" fill="url(#paint4_linear_1_67)" stroke="#CE1B1B" stroke-width="2"/>
<rect id="Rectangle 1_5" x="748" y="20.8721" width="102" height="102" rx="17" stroke="#61FFFF" stroke-width="2"/>
</g>
<g id="SkillSlot0113">
<rect id="Rectangle 2_6" x="979" y="103.872" width="98" height="98" rx="15" fill="url(#paint5_linear_1_67)" stroke="#CE1B1B" stroke-width="2"/>
<rect id="Rectangle 1_6" x="977" y="101.872" width="102" height="102" rx="17" stroke="#61FFFF" stroke-width="2"/>
</g>
<g id="SkillSlot0112">
<rect id="Rectangle 2_7" x="1256" y="122.872" width="98" height="98" rx="15" fill="url(#paint6_linear_1_67)" stroke="#CE1B1B" stroke-width="2"/>
<rect id="Rectangle 1_7" x="1254" y="120.872" width="102" height="102" rx="17" stroke="#61FFFF" stroke-width="2"/>
</g>
<g id="SkillSlot0111">
<rect id="Rectangle 2_8" x="1460" y="203.872" width="98" height="98" rx="15" fill="url(#paint7_linear_1_67)" stroke="#CE1B1B" stroke-width="2"/>
<rect id="Rectangle 1_8" x="1458" y="201.872" width="102" height="102" rx="17" stroke="#61FFFF" stroke-width="2"/>
</g>
<g id="SkillSlot0110">
<rect id="Rectangle 2_9" x="1052" y="345.872" width="98" height="98" rx="15" fill="url(#paint8_linear_1_67)" stroke="#CE1B1B" stroke-width="2"/>
<rect id="Rectangle 1_9" x="1050" y="343.872" width="102" height="102" rx="17" stroke="#61FFFF" stroke-width="2"/>
</g>
<g id="SkillSlot0101">
<rect id="Rectangle 2_10" x="1560" y="617.872" width="98" height="98" rx="15" fill="url(#paint9_linear_1_67)" stroke="#CE1B1B" stroke-width="2"/>
<rect id="Rectangle 1_10" x="1558" y="615.872" width="102" height="102" rx="17" stroke="#61FFFF" stroke-width="2"/>
</g>
<g id="SkillSlot001">
<rect id="Rectangle 2_11" x="714" y="940.872" width="98" height="98" rx="15" fill="url(#paint10_linear_1_67)" stroke="#CE1B1B" stroke-width="2"/>
<rect id="Rectangle 1_11" x="712" y="938.872" width="102" height="102" rx="17" stroke="#61FFFF" stroke-width="2"/>
</g>
<g id="SkillSlot002">
<rect id="Rectangle 2_12" x="641" y="692.872" width="98" height="98" rx="15" fill="url(#paint11_linear_1_67)" stroke="#CE1B1B" stroke-width="2"/>
<rect id="Rectangle 1_12" x="639" y="690.872" width="102" height="102" rx="17" stroke="#61FFFF" stroke-width="2"/>
</g>
<g id="SkillSlot0100">
<rect id="Rectangle 2_13" x="1356" y="861.872" width="98" height="98" rx="15" fill="url(#paint12_linear_1_67)" stroke="#CE1B1B" stroke-width="2"/>
<rect id="Rectangle 1_13" x="1354" y="859.872" width="102" height="102" rx="17" stroke="#61FFFF" stroke-width="2"/>
</g>
<g id="SkillSlot000">
<rect id="Rectangle 2_14" x="621" y="1147.87" width="98" height="98" rx="15" fill="url(#paint13_linear_1_67)" stroke="#CE1B1B" stroke-width="2"/>
<rect id="Rectangle 1_14" x="619" y="1145.87" width="102" height="102" rx="17" stroke="#61FFFF" stroke-width="2"/>
</g>
<g id="SkillSlot011">
<rect id="Rectangle 2_15" x="621" y="270.872" width="148" height="148" rx="15" fill="url(#paint14_linear_1_67)" stroke="#CE1B1B" stroke-width="2"/>
<rect id="Rectangle 1_15" x="619" y="268.872" width="152" height="152" rx="17" stroke="#61FFFF" stroke-width="2"/>
</g>
<g id="SkillSlot0">
<rect id="Rectangle 2_16" x="3" y="699.872" width="148" height="148" rx="15" fill="url(#paint15_linear_1_67)" stroke="#CE1B1B" stroke-width="2"/>
<rect id="Rectangle 1_16" x="1" y="697.872" width="152" height="152" rx="17" stroke="#61FFFF" stroke-width="2"/>
</g>
</g>
<defs>
<linearGradient id="paint0_linear_1_67" x1="424" y1="896.872" x2="424" y2="1046.87" gradientUnits="userSpaceOnUse">
<stop stop-color="#561F1F"/>
<stop offset="1" stop-color="#233F3F"/>
</linearGradient>
<linearGradient id="paint1_linear_1_67" x1="350" y1="490.872" x2="350" y2="640.872" gradientUnits="userSpaceOnUse">
<stop stop-color="#561F1F"/>
<stop offset="1" stop-color="#233F3F"/>
</linearGradient>
<linearGradient id="paint2_linear_1_67" x1="989" y1="597.872" x2="989" y2="747.872" gradientUnits="userSpaceOnUse">
<stop stop-color="#561F1F"/>
<stop offset="1" stop-color="#233F3F"/>
</linearGradient>
<linearGradient id="paint3_linear_1_67" x1="1305" y1="532.872" x2="1305" y2="632.872" gradientUnits="userSpaceOnUse">
<stop stop-color="#561F1F"/>
<stop offset="1" stop-color="#233F3F"/>
</linearGradient>
<linearGradient id="paint4_linear_1_67" x1="799" y1="21.8721" x2="799" y2="121.872" gradientUnits="userSpaceOnUse">
<stop stop-color="#561F1F"/>
<stop offset="1" stop-color="#233F3F"/>
</linearGradient>
<linearGradient id="paint5_linear_1_67" x1="1028" y1="102.872" x2="1028" y2="202.872" gradientUnits="userSpaceOnUse">
<stop stop-color="#561F1F"/>
<stop offset="1" stop-color="#233F3F"/>
</linearGradient>
<linearGradient id="paint6_linear_1_67" x1="1305" y1="121.872" x2="1305" y2="221.872" gradientUnits="userSpaceOnUse">
<stop stop-color="#561F1F"/>
<stop offset="1" stop-color="#233F3F"/>
</linearGradient>
<linearGradient id="paint7_linear_1_67" x1="1509" y1="202.872" x2="1509" y2="302.872" gradientUnits="userSpaceOnUse">
<stop stop-color="#561F1F"/>
<stop offset="1" stop-color="#233F3F"/>
</linearGradient>
<linearGradient id="paint8_linear_1_67" x1="1101" y1="344.872" x2="1101" y2="444.872" gradientUnits="userSpaceOnUse">
<stop stop-color="#561F1F"/>
<stop offset="1" stop-color="#233F3F"/>
</linearGradient>
<linearGradient id="paint9_linear_1_67" x1="1609" y1="616.872" x2="1609" y2="716.872" gradientUnits="userSpaceOnUse">
<stop stop-color="#561F1F"/>
<stop offset="1" stop-color="#233F3F"/>
</linearGradient>
<linearGradient id="paint10_linear_1_67" x1="763" y1="939.872" x2="763" y2="1039.87" gradientUnits="userSpaceOnUse">
<stop stop-color="#561F1F"/>
<stop offset="1" stop-color="#233F3F"/>
</linearGradient>
<linearGradient id="paint11_linear_1_67" x1="690" y1="691.872" x2="690" y2="791.872" gradientUnits="userSpaceOnUse">
<stop stop-color="#561F1F"/>
<stop offset="1" stop-color="#233F3F"/>
</linearGradient>
<linearGradient id="paint12_linear_1_67" x1="1405" y1="860.872" x2="1405" y2="960.872" gradientUnits="userSpaceOnUse">
<stop stop-color="#561F1F"/>
<stop offset="1" stop-color="#233F3F"/>
</linearGradient>
<linearGradient id="paint13_linear_1_67" x1="670" y1="1146.87" x2="670" y2="1246.87" gradientUnits="userSpaceOnUse">
<stop stop-color="#561F1F"/>
<stop offset="1" stop-color="#233F3F"/>
</linearGradient>
<linearGradient id="paint14_linear_1_67" x1="695" y1="269.872" x2="695" y2="419.872" gradientUnits="userSpaceOnUse">
<stop stop-color="#561F1F"/>
<stop offset="1" stop-color="#233F3F"/>
</linearGradient>
<linearGradient id="paint15_linear_1_67" x1="77" y1="698.872" x2="77" y2="848.872" gradientUnits="userSpaceOnUse">
<stop stop-color="#561F1F"/>
<stop offset="1" stop-color="#233F3F"/>
</linearGradient>
</defs>
</svg>
